HIERARCHY
ROOT hip
{
	OFFSET 0.00000 0.00000 0.00000
	CHANNELS 6 Xposition Yposition Zposition Zrotation Yrotation Xrotation 
	JOINT lhipjoint
	{
		OFFSET 0 0 0
		CHANNELS 3 Zrotation Yrotation Xrotation
		JOINT lfemur
		{
			OFFSET 1.73240 -1.89999 0.57994
			CHANNELS 3 Zrotation Yrotation Xrotation
			JOINT ltibia
			{
				OFFSET 2.43106 -6.67930 0.00000
				CHANNELS 3 Zrotation Yrotation Xrotation
				JOINT lfoot
				{
					OFFSET 2.78854 -7.66147 0.00000
					CHANNELS 3 Zrotation Yrotation Xrotation
					JOINT ltoes
					{
						OFFSET 0.17314 -0.47571 2.01064
						CHANNELS 3 Zrotation Yrotation Xrotation
						End Site
						{
							OFFSET 0.00000 -0.00000 1.04147
						}
					}
				}
			}
		}
	}
	JOINT rhipjoint
	{
		OFFSET 0 0 0
		CHANNELS 3 Zrotation Yrotation Xrotation
		JOINT rfemur
		{
			OFFSET -1.57078 -1.89998 0.57994
			CHANNELS 3 Zrotation Yrotation Xrotation
			JOINT rtibia
			{
				OFFSET -2.50166 -6.87326 0.00000
				CHANNELS 3 Zrotation Yrotation Xrotation
				JOINT rfoot
				{
					OFFSET -2.77304 -7.61886 0.00000
					CHANNELS 3 Zrotation Yrotation Xrotation
					JOINT rtoes
					{
						OFFSET -0.23513 -0.64602 2.11039
						CHANNELS 3 Zrotation Yrotation Xrotation
						End Site
						{
							OFFSET -0.00000 -0.00000 1.10597
						}
					}
				}
			}
		}
	}
	JOINT lowerback
	{
		OFFSET 0 0 0
		CHANNELS 3 Zrotation Yrotation Xrotation
		JOINT upperback
		{
			OFFSET -0.00908 2.00015 -0.35323
			CHANNELS 3 Zrotation Yrotation Xrotation
			JOINT thorax
			{
				OFFSET 0.05647 2.02258 0.04270
				CHANNELS 3 Zrotation Yrotation Xrotation
				JOINT lowerneck
				{
					OFFSET 0 0 0
					CHANNELS 3 Zrotation Yrotation Xrotation
					JOINT upperneck
					{
						OFFSET -0.02074 1.73711 0.13117
						CHANNELS 3 Zrotation Yrotation Xrotation
						JOINT head
						{
							OFFSET -0.02359 1.73615 -0.24320
							CHANNELS 3 Zrotation Yrotation Xrotation
							End Site
							{
								OFFSET -0.00579 1.75982 -0.09688
							}
						}
					}
				}
				JOINT lclavicle
				{
					OFFSET 0 0 0
					CHANNELS 3 Zrotation Yrotation Xrotation
					JOINT lhumerus
					{
						OFFSET 3.20537 1.11432 -0.27680
						CHANNELS 3 Zrotation Yrotation Xrotation
						JOINT lradius
						{
							OFFSET 5.05923 -0.00000 -0.00000
							CHANNELS 3 Zrotation Yrotation Xrotation
							JOINT lwrist
							{
								OFFSET 3.51996 -0.00000 0.00000
								CHANNELS 3 Zrotation Yrotation Xrotation
								JOINT lhand
								{
									OFFSET 0 0 0
									CHANNELS 3 Zrotation Yrotation Xrotation
									JOINT lfingers
									{
										OFFSET 0.65238 -0.00000 0.00000
										CHANNELS 3 Zrotation Yrotation Xrotation
										End Site
										{
											OFFSET 0.52596 -0.00000 0.00000
										}
									}
								}
								JOINT lthumb
								{
									OFFSET 0 0 0
									CHANNELS 3 Zrotation Yrotation Xrotation
									End Site
									{
										OFFSET 0.53399 -0.00000 0.53399
									}
								}
							}
						}
					}
				}
				JOINT rclavicle
				{
					OFFSET 0 0 0
					CHANNELS 3 Zrotation Yrotation Xrotation
					JOINT rhumerus
					{
						OFFSET -2.96983 1.42602 -0.37449
						CHANNELS 3 Zrotation Yrotation Xrotation
						JOINT rradius
						{
							OFFSET -5.40867 -0.00000 0.00000
							CHANNELS 3 Zrotation Yrotation Xrotation
							JOINT rwrist
							{
								OFFSET -3.12964 -0.00000 0.00000
								CHANNELS 3 Zrotation Yrotation Xrotation
								JOINT rhand
								{
									OFFSET 0 0 0
									CHANNELS 3 Zrotation Yrotation Xrotation
									JOINT rfingers
									{
										OFFSET -0.83271 -0.00000 0.00000
										CHANNELS 3 Zrotation Yrotation Xrotation
										End Site
										{
											OFFSET -0.67135 -0.00000 0.00000
										}
									}
								}
								JOINT rthumb
								{
									OFFSET 0 0 0
									CHANNELS 3 Zrotation Yrotation Xrotation
									End Site
									{
										OFFSET -0.68160 -0.00000 0.68160
									}
								}
							}
						}
					}
				}
			}
		}
	}
}
MOTION
Frames: 11
Frame Time: 0.033333
1.5828 17.7359 -29.0692 -1.1449 -5.3165 -4.3340 0.0000 -0.0000 0.0000 -15.6692 -11.5975 -0.3138 2.0447 8.9586 25.6661 0.0000 0.0000 0.0000 0.0000 0.0000 0.0000 0.0000 -0.0000 0.0000 24.9142 6.2893 -4.0481 -2.7132 -10.2157 29.6781 -0.0000 -0.0000 0.0000 -0.0000 -0.0000 0.0000 -2.8225 -0.6351 16.7855 3.0231 -1.0934 -1.8768 5.2385 -0.2140 -11.4327 -8.2134 -9.4950 -7.0072 1.2916 -12.0635 13.3022 0.8073 -6.2078 5.7554 0.0000 -0.0000 0.0000 -80.2592 14.6868 28.4923 40.4241 -48.3192 -18.7554 -0.0000 0.0000 -6.8169 15.5636 51.5448 12.3040 -7.1250 0.0000 -0.0000 -59.4056 76.6186 -46.9808 0.0000 -0.0000 0.0000 73.7533 10.1572 -24.0460 -89.4170 59.9987 -59.4951 0.0000 -0.0000 -83.5746 -30.2494 -4.0126 2.3368 7.1250 -0.0000 -0.0000 -2.9886 -34.6102 -0.7631
1.5697 17.7315 -29.0660 -0.7120 -5.3252 -4.4340 0.0000 -0.0000 0.0000 -16.1761 -11.6279 -0.0447 2.0114 8.8898 25.4511 0.0000 0.0000 0.0000 0.0000 0.0000 0.0000 0.0000 -0.0000 0.0000 24.4317 6.1226 -4.1421 -2.7574 -10.2916 29.9262 -0.0000 -0.0000 0.0000 -0.0000 -0.0000 0.0000 -2.8896 -0.3856 16.1887 2.7035 -0.8040 -0.8414 4.7922 -0.1475 -9.9620 -7.3002 -9.9692 -9.9810 1.0609 -12.5497 13.7693 0.3910 -6.3823 6.3501 0.0000 0.0000 0.0000 -79.6928 11.9079 29.1073 40.0233 -48.0837 -18.4566 -0.0000 0.0000 -6.9604 15.7847 51.9258 12.5457 -7.1250 0.0000 -0.0000 -60.8153 76.8497 -48.4699 0.0000 0.0000 0.0000 74.2894 11.9546 -25.1413 -89.5660 59.9993 -59.6242 0.0000 -0.0000 -83.4306 -30.0388 -4.6096 2.6607 7.1250 -0.0000 -0.0000 -2.8164 -35.2894 -0.6725
1.5540 17.7310 -29.0655 -0.6335 -5.4940 -4.4919 0.0000 -0.0000 0.0000 -16.2467 -11.6587 0.0593 2.0146 8.8964 25.4718 0.0000 0.0000 0.0000 0.0000 0.0000 0.0000 0.0000 -0.0000 0.0000 24.4010 6.1329 -4.0963 -2.7632 -10.3015 29.9586 -0.0000 -0.0000 0.0000 -0.0000 -0.0000 0.0000 -3.1412 -0.5845 15.4394 2.9006 -1.0833 -0.9289 5.1962 -0.2720 -9.5936 -8.0841 -9.6171 -7.5992 1.4424 -12.1974 12.6637 0.8096 -6.2424 5.6600 -0.0000 0.0000 0.0000 -80.2482 12.2749 28.5011 40.0063 -48.0736 -18.4439 -0.0000 0.0000 -6.9491 15.7635 52.0075 12.5421 -7.1250 0.0000 -0.0000 -61.1587 76.8708 -48.7987 -0.0000 0.0000 0.0000 74.4567 11.7391 -23.8581 -89.3794 59.9985 -59.4626 0.0000 -0.0000 -83.4721 -30.0909 -3.5294 2.0430 7.1250 -0.0000 -0.0000 -2.8536 -34.0468 -0.7676
1.5365 17.7307 -29.0713 -0.7138 -5.5839 -4.4895 0.0000 -0.0000 0.0000 -16.0829 -11.5936 0.0419 2.0139 8.8950 25.4674 0.0000 0.0000 0.0000 0.0000 0.0000 0.0000 0.0000 -0.0000 0.0000 24.5730 6.2567 -4.0682 -2.7692 -10.3117 29.9921 -0.0000 -0.0000 0.0000 -0.0000 -0.0000 0.0000 -3.1343 -0.6887 15.2953 2.9957 -1.2084 -1.0826 5.3252 -0.3245 -9.6652 -8.2178 -9.4353 -6.3583 1.5166 -12.0451 11.9818 0.9467 -6.1771 5.2450 -0.0000 0.0000 0.0000 -80.3893 12.3801 28.3742 39.9651 -48.0492 -18.4133 -0.0000 0.0000 -7.1385 15.7738 51.7934 12.5149 -7.1250 0.0000 -0.0000 -60.2844 76.7966 -47.9421 -0.0000 0.0000 0.0000 74.8229 11.6650 -23.2648 -89.4046 59.9987 -59.4844 0.0000 -0.0000 -83.3421 -30.0477 -3.2723 1.8912 7.1250 -0.0000 -0.0000 -2.8156 -33.7489 -0.7777
1.5207 17.7335 -29.0824 -0.8661 -5.6125 -4.4784 0.0000 -0.0000 0.0000 -15.8126 -11.4906 -0.0884 2.0194 8.9063 25.5027 0.0000 0.0000 0.0000 0.0000 0.0000 0.0000 0.0000 -0.0000 0.0000 24.8053 6.2795 -4.0879 -2.7645 -10.3036 29.9657 -0.0000 -0.0000 0.0000 -0.0000 -0.0000 0.0000 -2.9122 -0.5586 16.1862 2.9774 -1.0083 -1.3582 5.1746 -0.2091 -10.5106 -7.6505 -9.5613 -7.0534 1.1176 -12.1775 12.4611 0.6845 -6.2395 5.4558 0.0000 -0.0000 0.0000 -80.1058 12.1704 28.9862 39.9909 -48.0645 -18.4324 -0.0000 0.0000 -7.3210 15.7429 51.4579 12.4339 -7.1250 0.0000 -0.0000 -58.9609 76.6554 -46.6248 0.0000 -0.0000 0.0000 75.2762 11.4581 -23.3877 -89.6660 59.9996 -59.7107 0.0000 -0.0000 -83.4535 -29.8114 -3.2844 1.8802 7.1250 -0.0000 -0.0000 -2.6219 -33.7552 -0.7237
1.5073 17.7361 -29.0855 -0.7903 -5.5642 -4.4850 0.0000 -0.0000 0.0000 -15.8398 -11.4770 -0.1290 2.0223 8.9125 25.5219 0.0000 0.0000 0.0000 0.0000 0.0000 0.0000 0.0000 -0.0000 0.0000 24.7422 6.1731 -4.1213 -2.7595 -10.2951 29.9377 -0.0000 -0.0000 0.0000 -0.0000 -0.0000 0.0000 -3.0052 -0.7842 15.7216 3.0706 -1.3107 -1.2977 5.3830 -0.3584 -10.1380 -7.9871 -9.2794 -6.2487 1.3118 -11.8438 11.9639 0.8744 -6.0829 5.1846 -0.0000 -0.0000 0.0000 -80.4524 12.1118 28.4804 40.0991 -48.1285 -18.5130 -0.0000 0.0000 -7.1917 15.8149 49.7934 12.2065 -7.1250 0.0000 -0.0000 -52.6632 75.9372 -40.4633 -0.0000 -0.0000 0.0000 75.5451 11.6188 -22.5220 -89.7700 59.9998 -59.8008 0.0000 -0.0000 -83.5281 -29.1792 -3.7363 2.0839 7.1250 -0.0000 -0.0000 -2.1035 -34.2514 -0.5551
1.4946 17.7352 -29.0824 -0.6469 -5.5388 -4.5439 0.0000 -0.0000 0.0000 -15.9934 -11.5041 -0.0260 2.0211 8.9098 25.5137 0.0000 0.0000 0.0000 0.0000 0.0000 0.0000 0.0000 -0.0000 0.0000 24.6362 6.1292 -4.0189 -2.7518 -10.2819 29.8947 -0.0000 -0.0000 0.0000 -0.0000 -0.0000 0.0000 -3.3247 -1.0924 15.0556 3.2239 -1.7543 -1.4751 5.8153 -0.5541 -9.8873 -8.6053 -8.7506 -3.8170 1.6779 -11.3208 10.7998 1.2630 -5.8419 4.4547 0.0000 -0.0000 0.0000 -81.0089 12.8322 27.8312 40.3095 -48.2522 -18.6698 -0.0000 0.0000 -7.0611 16.6867 46.1017 12.1886 -7.1250 0.0000 -0.0000 -40.3654 74.0761 -28.8601 0.0000 -0.0000 0.0000 75.8053 11.2386 -21.3755 -90.0288 60.0000 -60.0249 0.0000 -0.0000 -83.5069 -29.7143 -3.5313 2.0133 7.1250 -0.0000 -0.0000 -2.5438 -34.0358 -0.6848
1.4789 17.7355 -29.0811 -0.5149 -5.5809 -4.6031 0.0000 -0.0000 0.0000 -16.1169 -11.5304 0.0598 2.0260 8.9199 25.5452 0.0000 0.0000 0.0000 0.0000 0.0000 0.0000 0.0000 -0.0000 0.0000 24.5370 6.0847 -3.9433 -2.7487 -10.2767 29.8774 -0.0000 -0.0000 0.0000 -0.0000 -0.0000 0.0000 -3.4604 -0.9632 16.1230 3.3134 -1.6198 -1.6617 6.0232 -0.4425 -10.7242 -8.3692 -8.8535 -5.6012 1.1631 -11.2665 11.8359 0.9665 -5.8315 5.0253 -0.0000 -0.0000 0.0000 -81.1962 12.4361 28.2238 40.2707 -48.2295 -18.6409 -0.0000 0.0000 -7.2154 16.3045 50.4587 12.7115 -7.1250 0.0000 -0.0000 -54.7464 76.4497 -42.7399 -0.0000 -0.0000 0.0000 75.9168 11.3769 -21.4598 -90.1618 59.9999 -60.1401 0.0000 -0.0000 -83.4831 -29.4945 -4.1540 2.3463 7.1250 -0.0000 -0.0000 -2.3637 -34.7420 -0.5957
1.4626 17.7396 -29.0855 -0.5212 -5.7539 -4.6003 0.0000 -0.0000 0.0000 -16.0498 -11.4814 0.0574 2.0336 8.9358 25.5947 0.0000 0.0000 0.0000 0.0000 0.0000 0.0000 0.0000 -0.0000 0.0000 24.5817 6.0768 -3.9742 -2.7475 -10.2746 29.8706 -0.0000 -0.0000 0.0000 -0.0000 -0.0000 0.0000 -3.3033 -0.7417 15.8664 3.1801 -1.3033 -1.2788 5.6798 -0.3328 -10.1936 -7.7108 -9.0536 -6.5646 1.1048 -11.5137 11.8479 0.7864 -5.9182 5.1567 0.0000 0.0000 0.0000 -80.7390 11.1620 28.9274 40.0902 -48.1232 -18.5063 -0.0000 0.0000 -7.4373 16.2477 44.6721 11.5791 -7.1250 0.0000 -0.0000 -37.2240 72.9098 -25.5777 0.0000 0.0000 0.0000 76.4688 12.0198 -21.9401 -90.2776 59.9997 -60.2404 0.0000 -0.0000 -83.5816 -29.2989 -4.2711 2.3931 7.1250 -0.0000 -0.0000 -2.2010 -34.8678 -0.5479
1.4463 17.7346 -29.0914 -0.8037 -5.9280 -4.5249 0.0000 -0.0000 0.0000 -15.6212 -11.4035 -0.0892 2.0484 8.9661 25.6893 0.0000 0.0000 0.0000 0.0000 0.0000 0.0000 0.0000 -0.0000 0.0000 24.9709 6.1909 -4.0375 -2.7494 -10.2779 29.8816 -0.0000 -0.0000 0.0000 -0.0000 -0.0000 0.0000 -2.9823 -0.5573 15.8904 3.2025 -0.9945 -1.1129 5.4407 -0.2099 -10.0644 -7.1181 -9.1913 -7.5215 0.9227 -11.6708 12.0858 0.5788 -5.9737 5.3493 -0.0000 0.0000 0.0000 -80.4532 10.2356 29.6280 39.9611 -48.0468 -18.4103 -0.0000 0.0000 -7.4628 16.1981 45.2516 11.6571 -7.1250 0.0000 -0.0000 -38.6786 73.3069 -26.9669 -0.0000 0.0000 0.0000 76.8469 12.3190 -22.3141 -90.2996 59.9997 -60.2595 0.0000 -0.0000 -83.6519 -29.2845 -4.1580 2.3285 7.1250 -0.0000 -0.0000 -2.1896 -34.7379 -0.5520
1.5828 17.7359 -29.0692 -1.1449 -5.3165 -4.3340 0.0000 -0.0000 0.0000 -15.6692 -11.5975 -0.3138 2.0447 8.9586 25.6661 0.0000 0.0000 0.0000 0.0000 0.0000 0.0000 0.0000 -0.0000 0.0000 24.9142 6.2893 -4.0481 -2.7132 -10.2157 29.6781 -0.0000 -0.0000 0.0000 -0.0000 -0.0000 0.0000 -2.8225 -0.6351 16.7855 3.0231 -1.0934 -1.8768 5.2385 -0.2140 -11.4327 -8.2134 -9.4950 -7.0072 1.2916 -12.0635 13.3022 0.8073 -6.2078 5.7554 0.0000 -0.0000 0.0000 -80.2592 14.6868 28.4923 40.4241 -48.3192 -18.7554 -0.0000 0.0000 -6.8169 15.5636 51.5448 12.3040 -7.1250 0.0000 -0.0000 -59.4056 76.6186 -46.9808 0.0000 -0.0000 0.0000 73.7533 10.1572 -24.0460 -89.4170 59.9987 -59.4951 0.0000 -0.0000 -83.5746 -30.2494 -4.0126 2.3368 7.1250 -0.0000 -0.0000 -2.9886 -34.6102 -0.7631
